<?xml version="1.0" standalone="no"?>
<!DOCTYPE svg PUBLIC "-//W3C//DTD SVG 20010904//EN"
 "http://www.w3.org/TR/2001/REC-SVG-20010904/DTD/svg10.dtd">
<svg version="1.0" xmlns="http://www.w3.org/2000/svg"
 width="260.000000pt" height="260.000000pt" viewBox="0 0 260.000000 260.000000"
 preserveAspectRatio="xMidYMid meet">
<metadata>
Created by potrace 1.14, written by Peter Selinger 2001-2017
</metadata>
<g transform="translate(0.000000,260.000000) scale(0.100000,-0.100000)"
fill="#000000" stroke="none">
<path d="M1286 2411 c-4 -6 -12 -8 -18 -5 -7 4 -8 2 -4 -5 6 -9 11 -9 22 0 10
8 14 8 14 0 0 -6 -4 -12 -10 -12 -5 -1 -14 -3 -20 -4 -5 -1 -13 -3 -17 -4 -5
-1 -1 -6 7 -11 10 -6 11 -10 3 -10 -7 0 -13 -7 -13 -16 0 -10 -5 -14 -16 -10
-8 3 -13 2 -9 -3 3 -5 2 -11 -2 -14 -5 -2 -1 -2 7 0 9 2 6 -4 -7 -16 -12 -10
-20 -21 -16 -24 3 -3 -1 -13 -10 -21 -8 -8 -17 -12 -21 -9 -3 4 -6 1 -6 -5 0
-7 6 -12 13 -12 9 0 8 -3 -2 -9 -8 -5 -10 -14 -6 -21 5 -9 4 -11 -3 -6 -7 4
-12 3 -12 -3 0 -6 -6 -8 -13 -5 -8 3 -14 -2 -14 -10 0 -8 4 -13 9 -10 4 3 3
-6 -4 -20 -6 -14 -17 -26 -23 -26 -7 0 -12 -10 -11 -22 1 -19 7 -23 31 -23 17
1 33 -4 37 -10 5 -6 8 -4 8 5 0 13 1 13 11 0 9 -12 12 -13 16 -1 5 11 7 11 14
0 7 -12 9 -11 9 1 0 13 1 13 10 0 9 -13 10 -13 10 0 0 13 1 13 10 0 5 -8 10
-10 10 -4 0 8 13 9 40 4 23 -4 40 -3 40 2 0 5 5 6 11 2 14 -9 98 -11 93 -3 -2
4 3 12 11 19 13 11 14 10 9 -6 -5 -16 -4 -16 5 -4 9 12 11 13 11 1 0 -8 3 -12
6 -8 3 3 0 15 -8 26 -8 12 -18 18 -22 14 -4 -4 -4 1 0 11 6 15 4 17 -6 11 -8
-5 -11 -4 -7 2 4 6 -3 21 -14 34 -11 13 -18 31 -16 41 3 10 1 16 -4 12 -5 -3
-9 0 -9 6 0 6 -4 9 -9 6 -5 -3 -12 1 -15 10 -9 25 -7 27 11 13 14 -12 14 -11
-1 13 -10 15 -23 25 -29 21 -6 -3 -7 -1 -3 5 4 7 2 12 -5 12 -6 0 -9 8 -6 20
3 10 2 19 -2 18 -18 -2 -21 4 -10 25 11 20 11 21 -4 8 -10 -7 -17 -9 -17 -4 0
5 -6 17 -13 28 -10 13 -16 15 -21 6z"/>
<path d="M1430 2201 c0 -6 4 -13 10 -16 6 -3 7 1 4 9 -7 18 -14 21 -14 7z"/>
<path d="M1156 1995 c-14 -11 -23 -12 -33 -4 -10 9 -13 7 -13 -10 0 -12 -4
-20 -8 -17 -5 3 -9 -1 -9 -8 0 -8 8 -11 19 -8 12 3 18 -1 18 -12 0 -9 5 -16
11 -16 5 0 7 -5 4 -10 -4 -6 4 -20 17 -31 l23 -20 -25 12 c-23 11 -24 11 -11
-4 7 -10 21 -17 30 -17 14 0 14 -2 1 -10 -11 -7 -11 -10 -2 -10 7 0 10 -4 7
-10 -3 -5 0 -10 8 -10 8 0 21 -8 28 -17 8 -10 9 -14 2 -10 -8 5 -11 1 -10 -12
0 -11 5 -17 9 -15 4 3 8 -2 8 -10 0 -9 5 -16 11 -16 5 0 7 -4 4 -10 -3 -5 -1
-10 5 -10 7 0 9 -7 6 -16 -3 -8 -2 -12 4 -9 6 3 10 -2 11 -12 0 -10 3 -13 6
-5 2 6 9 12 14 12 6 0 7 -4 4 -10 -3 -5 -1 -10 4 -10 6 0 11 5 11 11 0 5 6 7
13 3 9 -6 9 -4 -1 8 -9 11 -10 18 -2 23 5 3 10 0 10 -7 0 -10 3 -9 9 2 6 8 7
18 5 22 -6 10 27 68 39 68 5 0 7 11 5 25 -5 22 -3 23 16 13 12 -6 18 -7 14 -3
-4 5 -3 14 3 21 6 8 9 21 5 30 -5 12 -1 14 16 8 21 -6 21 -6 5 10 -21 22 -22
27 0 19 12 -5 14 -3 8 7 -6 10 -4 12 10 6 15 -5 16 -4 6 8 -9 11 -9 15 1 20
10 5 10 7 0 12 -6 3 -9 10 -6 15 3 6 12 5 22 -3 12 -9 11 -6 -2 10 -19 22 -32
30 -21 13 6 -11 -34 -9 -52 2 -6 4 -14 3 -18 -3 -3 -5 -11 -10 -16 -10 -6 0
-7 5 -3 11 5 8 1 8 -13 0 -14 -7 -23 -7 -30 0 -8 8 -13 7 -17 0 -10 -15 -29
-14 -20 2 6 10 4 10 -7 0 -7 -7 -17 -13 -22 -13 -4 0 -5 6 -1 13 6 10 4 10 -7
0 -16 -16 -33 -17 -23 -1 5 7 3 8 -7 3 -19 -12 -60 -15 -54 -4 8 12 3 11 -19
-6z"/>
<path d="M1563 1950 c-13 -5 -23 -12 -23 -15 0 -4 6 -3 13 1 9 6 8 3 -1 -8 -8
-10 -21 -14 -30 -11 -13 4 -12 2 3 -11 11 -10 14 -15 8 -11 -7 3 -13 1 -13 -5
0 -6 -5 -8 -10 -5 -7 4 -9 -3 -6 -19 3 -14 2 -25 -2 -25 -19 3 -23 -3 -12 -16
11 -13 10 -14 -3 -9 -10 3 -20 -2 -27 -15 -8 -16 -8 -21 2 -21 7 -1 2 -9 -11
-20 -12 -11 -28 -17 -35 -13 -6 4 -6 0 2 -9 9 -12 10 -18 2 -23 -6 -4 -9 -12
-7 -18 2 -7 -5 -17 -16 -23 -22 -13 -32 -58 -11 -50 6 2 15 2 19 -2 10 -11 65
-10 65 1 0 5 8 0 18 -12 13 -16 20 -18 32 -10 13 10 13 10 -1 6 -9 -3 -16 1
-16 9 0 7 4 11 9 8 5 -3 23 -8 40 -11 22 -3 28 -1 23 8 -6 9 -4 10 6 3 19 -12
32 -12 42 1 5 5 5 0 2 -12 -5 -18 -3 -22 9 -17 9 3 14 9 11 13 -2 4 10 5 27 3
22 -3 29 -1 23 7 -5 9 -2 9 13 0 12 -7 18 -18 14 -24 -3 -5 2 -4 11 4 10 8 15
16 13 18 -3 3 -1 16 4 29 8 19 6 22 -7 17 -13 -5 -15 -2 -10 12 7 16 5 16 -10
4 -11 -9 -14 -10 -9 -1 4 7 2 12 -4 12 -6 0 -8 5 -5 10 3 6 1 10 -6 10 -9 0
-9 3 0 14 10 12 8 17 -7 25 -11 6 -22 8 -25 5 -3 -3 -3 4 0 17 4 15 3 20 -5
15 -7 -4 -12 -1 -12 9 0 10 5 14 13 10 6 -4 -1 5 -17 18 -21 19 -27 30 -22 48
3 13 3 18 0 11 -8 -18 -34 4 -34 29 0 11 -5 19 -11 19 -8 0 -8 5 1 15 14 17
13 17 -17 5z"/>
<path d="M1020 1941 c0 -7 -4 -9 -10 -6 -5 3 -7 0 -4 -8 3 -9 -2 -16 -14 -19
-13 -4 -18 -13 -16 -36 1 -24 -1 -29 -14 -25 -12 5 -14 2 -9 -12 6 -14 5 -15
-6 -7 -10 8 -13 6 -13 -8 0 -10 5 -16 10 -13 5 3 6 1 2 -5 -4 -7 -15 -12 -24
-12 -13 0 -14 -2 -3 -9 11 -7 9 -13 -8 -30 -11 -11 -21 -28 -21 -37 0 -10 -5
-14 -15 -10 -13 5 -14 2 -4 -17 11 -19 10 -21 -3 -9 -13 10 -18 10 -24 1 -4
-8 -3 -9 4 -5 8 5 10 -2 5 -25 -5 -26 -3 -31 8 -24 11 6 12 5 2 -6 -7 -7 -13
-18 -13 -24 0 -5 5 -3 10 5 5 8 10 10 10 5 0 -6 9 -11 19 -11 11 0 17 4 15 8
-3 4 0 9 5 9 21 3 26 4 38 12 6 4 15 2 19 -4 4 -7 3 -9 -4 -5 -6 3 -13 2 -17
-4 -4 -6 -12 -7 -18 -4 -7 4 -8 3 -4 -2 10 -11 67 -12 60 -1 -2 4 1 8 6 8 21
3 26 4 38 12 6 4 15 2 18 -3 8 -13 57 -9 67 5 5 6 8 6 8 -1 0 -7 15 -11 39
-10 21 0 38 -3 36 -9 -1 -5 0 -6 3 -2 2 4 11 2 20 -5 9 -7 5 2 -8 21 -18 27
-20 33 -7 28 9 -3 19 -1 23 5 4 7 3 8 -4 4 -7 -4 -12 -2 -12 3 0 6 -7 11 -16
11 -8 0 -13 4 -10 9 3 5 -1 12 -10 15 -12 5 -14 9 -5 20 8 10 8 16 -2 25 -8 6
-16 8 -19 5 -3 -2 -8 2 -12 11 -4 10 -2 14 5 9 17 -10 -11 38 -33 58 -11 9
-18 25 -16 35 3 22 -9 43 -25 43 -6 0 -2 -7 9 -15 10 -8 14 -15 8 -15 -20 0
-38 29 -26 43 7 8 5 16 -6 27 -14 13 -15 12 -9 -5 7 -20 7 -20 -8 -1 -8 11
-15 14 -15 7z"/>
<path d="M895 1760 c-3 -5 -1 -10 4 -10 6 0 11 5 11 10 0 6 -2 10 -4 10 -3 0
-8 -4 -11 -10z"/>
<path d="M1365 1761 c-3 -5 0 -13 6 -17 7 -4 9 -3 5 4 -3 5 0 13 6 15 9 4 10
6 1 6 -6 1 -14 -3 -18 -8z"/>
<path d="M1025 1610 c-4 -6 -11 -7 -17 -4 -6 4 -8 2 -4 -4 7 -12 46 -12 46 0
0 12 -18 19 -25 8z"/>
<path d="M1387 1606 c-4 -10 -1 -13 8 -9 8 3 12 9 9 14 -7 12 -11 11 -17 -5z"/>
<path d="M1131 1594 c0 -11 3 -14 6 -6 3 7 2 16 -1 19 -3 4 -6 -2 -5 -13z"/>
<path d="M1436 1599 c2 -4 -2 -10 -8 -12 -8 -4 -9 -6 -2 -6 6 -1 17 5 23 12 8
10 7 14 -4 14 -8 0 -12 -4 -9 -8z"/>
<path d="M1470 1595 c0 -8 4 -15 10 -15 5 0 7 7 4 15 -4 8 -8 15 -10 15 -2 0
-4 -7 -4 -15z"/>
<path d="M1575 1600 c-2 -3 5 -7 16 -7 10 -1 19 2 19 6 0 9 -29 10 -35 1z"/>
<path d="M1695 1601 c-3 -5 -2 -12 3 -15 5 -3 9 1 9 9 0 17 -3 19 -12 6z"/>
<path d="M825 1540 c-4 -6 -1 -9 7 -8 9 2 13 -8 13 -30 0 -24 6 -37 22 -45 21
-12 23 -15 23 -40 0 -7 9 -23 20 -35 11 -12 20 -34 20 -49 0 -22 2 -25 10 -13
8 12 10 10 10 -8 0 -13 4 -20 10 -17 6 3 10 -1 10 -10 0 -10 -5 -13 -12 -9 -8
4 -10 3 -5 -2 5 -5 14 -9 20 -9 5 0 12 -6 15 -14 3 -8 0 -11 -7 -7 -6 4 -11 2
-11 -3 0 -6 9 -11 20 -11 11 0 21 -4 21 -10 1 -5 2 -14 3 -19 2 -15 16 -26 16
-13 0 7 5 12 11 12 5 0 7 -5 3 -12 -4 -7 -3 -8 5 -4 6 4 9 19 7 33 -4 19 -2
23 11 19 13 -5 14 -4 3 9 -10 13 -9 15 9 15 11 0 21 5 21 11 0 5 -4 8 -8 5 -5
-3 -9 1 -9 8 0 9 7 12 16 8 9 -3 13 -2 9 3 -4 4 -2 15 5 23 10 13 9 15 -3 8
-8 -4 -6 -1 4 8 10 8 22 14 25 12 3 -2 6 9 7 26 1 16 7 35 14 41 10 9 11 9 6
0 -5 -9 -2 -11 9 -7 14 6 14 8 -2 20 -14 11 -14 14 -3 12 8 -2 14 3 13 10 -2
6 5 12 15 12 14 0 15 2 2 10 -14 9 -7 14 13 11 5 -1 6 3 2 9 -3 5 0 10 7 10
10 0 10 2 -1 9 -8 5 -11 16 -8 26 6 13 1 12 -24 -6 l-30 -21 -6 21 c-3 11 -9
18 -14 15 -5 -3 -7 -11 -3 -17 3 -7 -1 -4 -9 5 -13 17 -15 16 -25 -5 -6 -12
-11 -16 -11 -9 -1 7 -6 10 -13 6 -7 -4 -8 -3 -4 5 4 6 12 8 18 5 6 -4 8 -2 5
4 -5 7 -16 7 -36 -1 -17 -6 -27 -15 -24 -21 3 -5 1 -6 -5 -2 -6 4 -9 13 -6 21
6 14 -19 16 -32 2 -11 -11 -26 -8 -19 3 3 6 -1 7 -9 4 -9 -3 -13 -10 -10 -16
3 -5 -7 -3 -22 5 -17 8 -39 11 -54 7 -14 -4 -30 -3 -37 2 -7 5 -14 5 -18 -2z
m94 -23 c0 -9 -2 -8 -6 1 -2 6 -10 9 -15 6 -7 -4 -8 -2 -4 5 9 13 26 5 25 -12z"/>
<path d="M1165 1539 c-11 -17 1 -21 15 -4 8 9 8 15 2 15 -6 0 -14 -5 -17 -11z"/>
<path d="M1386 1535 c-3 -10 -11 -13 -18 -9 -10 6 -10 5 0 -8 7 -8 9 -24 5
-33 -5 -14 -3 -16 7 -10 10 6 12 4 7 -8 -4 -11 -2 -14 9 -10 9 3 14 -2 14 -16
0 -12 5 -21 10 -21 6 0 9 -3 9 -7 -3 -20 2 -34 10 -29 5 3 11 -1 14 -9 4 -10
1 -12 -11 -8 -13 4 -12 2 3 -10 11 -8 23 -13 27 -11 4 3 5 -2 2 -10 -6 -15 19
-50 28 -41 3 3 4 -10 3 -28 0 -21 4 -34 12 -34 7 0 9 5 6 10 -3 6 -1 7 5 3 6
-3 9 -15 7 -26 -2 -12 0 -18 6 -14 6 3 9 -2 7 -11 -2 -11 4 -19 14 -20 10 -2
17 0 16 3 -6 31 36 107 53 96 5 -3 4 7 -1 22 -9 23 -8 25 3 15 12 -9 14 -7 12
13 -2 16 1 23 9 20 18 -7 50 42 34 52 -7 5 -8 3 -3 -6 5 -9 4 -11 -4 -6 -6 4
-9 12 -5 17 3 5 10 7 15 4 5 -4 9 1 9 10 0 9 4 14 9 11 5 -4 7 2 4 13 -3 10 1
22 8 26 8 6 10 4 5 -6 -4 -8 1 -3 12 11 15 18 18 28 10 37 -6 7 -7 13 -2 13 5
0 2 4 -6 10 -9 5 -19 5 -27 -2 -10 -8 -12 -7 -8 4 4 11 -2 14 -24 13 -17 -1
-34 -5 -38 -10 -5 -4 -1 -4 7 0 13 8 13 6 1 -8 -16 -20 -33 -13 -24 11 6 14 4
15 -8 5 -12 -9 -18 -10 -27 -1 -8 8 -15 8 -26 -2 -9 -7 -22 -10 -30 -7 -7 3
-19 0 -25 -6 -9 -9 -11 -8 -6 5 7 17 -9 19 -32 5 -7 -5 -17 -6 -22 -3 -5 4
-12 0 -14 -6 -4 -10 -6 -10 -6 0 -1 6 -6 12 -12 12 -5 0 -7 -6 -4 -12 4 -7 0
-5 -8 5 -13 16 -15 16 -21 2z m204 -4 c0 -6 -4 -12 -8 -15 -5 -3 -9 1 -9 9 0
8 4 15 9 15 4 0 8 -4 8 -9z m100 -1 c0 -5 -5 -10 -11 -10 -5 0 -7 5 -4 10 3 6
8 10 11 10 2 0 4 -4 4 -10z m-17 -165 c-3 -9 -8 -14 -10 -11 -3 3 -2 9 2 15 9
16 15 13 8 -4z"/>
<path d="M737 1463 c-2 -5 -3 -16 -2 -25 2 -10 -2 -15 -11 -11 -8 3 -16 -5
-20 -21 -3 -14 -11 -23 -17 -19 -6 3 -7 1 -3 -6 4 -6 2 -19 -6 -28 -11 -14
-11 -16 1 -8 10 5 12 4 7 -4 -4 -7 -17 -9 -29 -6 -12 4 -17 3 -12 -2 16 -13
16 -33 -1 -33 -8 0 -12 -5 -9 -10 4 -6 11 -7 17 -4 7 5 8 2 4 -5 -5 -7 -15
-10 -23 -6 -13 4 -14 3 -3 -10 11 -13 10 -14 -5 -9 -13 5 -16 4 -11 -4 4 -7 2
-12 -3 -12 -6 0 -11 -5 -11 -11 0 -5 6 -7 13 -3 8 5 7 2 -2 -10 -8 -9 -21 -14
-30 -11 -8 3 -12 3 -8 -1 4 -4 1 -14 -6 -23 -10 -14 -10 -14 5 -3 14 11 16 11
11 -7 -3 -12 -10 -18 -17 -14 -8 4 -8 3 0 -6 7 -7 27 -14 46 -15 19 -1 40 -6
48 -11 9 -5 11 -4 6 3 -10 16 7 15 23 0 11 -11 12 -10 6 1 -6 10 -4 13 7 8 9
-3 21 0 28 6 10 9 12 8 7 -5 -8 -22 -3 -23 17 -2 9 8 16 11 16 6 0 -5 10 -8
23 -8 12 1 28 -3 36 -8 11 -8 13 -8 7 1 -5 10 3 11 35 7 29 -4 39 -3 35 5 -5
7 -1 9 8 5 9 -3 13 -11 9 -18 -3 -6 -2 -7 3 -3 5 5 9 14 9 20 1 7 7 11 14 9 7
-1 10 2 6 8 -3 6 -11 7 -17 4 -6 -4 -5 3 2 16 10 18 9 21 -1 15 -9 -6 -11 -2
-7 12 4 16 1 19 -18 17 -13 -1 -22 2 -19 7 3 5 1 18 -6 30 -8 15 -8 19 0 15 6
-4 11 -2 11 3 0 10 -14 15 -33 12 -5 -1 -6 3 -2 9 3 5 2 10 -3 10 -6 0 -13 7
-16 16 -3 8 -2 12 4 9 6 -3 10 -1 10 4 0 10 -14 15 -33 12 -5 -1 -6 3 -3 8 4
5 2 12 -3 15 -5 4 -8 17 -6 31 1 14 -2 25 -7 25 -5 0 -18 9 -30 20 -23 21 -34
25 -41 13z"/>
<path d="M1799 1463 c-3 -5 -6 -23 -8 -34 0 -5 -5 -7 -11 -4 -5 3 -10 1 -10
-4 0 -6 5 -11 10 -11 6 0 10 -5 10 -12 0 -6 -3 -9 -6 -5 -10 10 -36 -22 -28
-34 4 -7 3 -9 -3 -6 -14 9 -24 -18 -12 -30 7 -7 2 -10 -14 -8 -20 2 -23 -1
-19 -20 3 -16 -2 -27 -18 -35 -18 -10 -19 -14 -8 -28 11 -13 11 -15 -4 -10
-10 4 -19 1 -22 -8 -3 -8 -2 -13 2 -10 5 3 9 -1 9 -8 0 -8 -7 -12 -14 -9 -8 3
-13 0 -11 -8 2 -7 -2 -13 -9 -14 -6 0 -15 -4 -20 -9 -4 -5 -3 -6 3 -3 7 4 15
0 18 -9 4 -9 9 -14 12 -11 3 3 17 2 31 -4 16 -6 22 -6 18 1 -3 6 3 10 15 10
14 0 19 -4 14 -12 -4 -7 2 -5 13 5 13 11 23 14 27 8 4 -5 25 -8 48 -6 24 2 49
-1 57 -8 12 -9 13 -9 7 1 -4 7 -2 12 6 12 8 0 20 -6 27 -12 8 -8 11 -8 8 -2
-5 8 4 11 26 9 17 -2 38 2 46 9 12 8 13 8 7 -1 -9 -15 3 -17 24 -3 8 5 10 10
4 10 -7 0 -15 7 -18 16 -5 14 -4 15 9 4 13 -11 14 -10 9 4 -3 9 -12 16 -20 16
-13 0 -19 18 -15 49 2 7 -2 10 -8 6 -6 -3 -11 -1 -11 5 0 6 -4 9 -9 5 -6 -3
-8 4 -6 15 2 12 -1 20 -10 20 -7 0 -16 7 -19 16 -5 14 -4 15 9 4 13 -11 14
-10 9 4 -5 14 -17 20 -35 18 -4 -1 -5 8 -2 18 3 11 0 20 -6 20 -6 0 -11 7 -11
16 0 9 -5 12 -12 8 -8 -5 -8 -1 2 12 8 10 10 16 6 12 -5 -5 -16 1 -24 13 -9
13 -20 18 -31 14 -12 -5 -13 -4 -4 6 10 10 16 9 28 -1 13 -11 14 -10 9 4 -4
11 -16 15 -35 14 -16 -1 -30 -4 -30 -5z"/>
<path d="M860 1441 c0 -6 4 -13 10 -16 6 -3 7 1 4 9 -7 18 -14 21 -14 7z"/>
<path d="M826 1378 c3 -5 10 -6 15 -3 13 9 11 12 -6 12 -8 0 -12 -4 -9 -9z"/>
<path d="M1605 1250 c-3 -6 1 -7 9 -4 18 7 21 14 7 14 -6 0 -13 -4 -16 -10z"/>
<path d="M781 1070 c-1 -16 -41 -23 -41 -7 0 5 -6 4 -14 -2 -10 -8 -16 -9 -21
-1 -4 7 -12 7 -26 0 -13 -7 -19 -7 -19 0 0 5 -8 10 -17 10 -15 0 -16 -2 -3
-10 9 -6 10 -10 3 -10 -6 0 -15 5 -18 11 -5 7 -14 4 -28 -8 -11 -10 -18 -13
-14 -7 3 6 0 11 -7 11 -14 0 -15 -32 -1 -44 4 -5 5 -1 1 7 -5 8 3 2 17 -15 14
-16 23 -32 21 -35 -3 -2 -9 2 -14 10 -6 8 -10 10 -10 4 0 -5 14 -20 31 -33 17
-13 28 -25 25 -28 -3 -3 7 -22 21 -42 15 -20 21 -30 13 -23 -8 6 -18 12 -24
12 -5 0 0 -8 11 -17 11 -10 23 -28 27 -41 4 -12 12 -19 18 -16 7 4 8 2 4 -5
-4 -6 0 -14 8 -17 9 -3 16 -10 16 -16 0 -5 -4 -7 -8 -4 -5 3 -9 -1 -9 -9 0 -8
5 -13 11 -12 6 1 10 -4 8 -11 -1 -8 2 -11 8 -7 6 3 7 11 4 17 -5 8 -1 9 10 5
14 -6 17 -3 12 9 -5 14 -4 15 8 5 13 -11 15 -9 11 8 -2 12 0 21 6 21 5 0 9 7
9 16 0 9 5 12 13 8 9 -6 9 -5 0 8 -15 17 -7 29 13 21 10 -3 14 3 14 20 0 14 3
33 6 41 5 14 9 14 22 4 11 -9 13 -9 9 -1 -4 6 -3 15 3 18 8 5 7 11 -1 21 -10
12 -10 15 2 12 8 -2 14 5 14 17 0 11 8 21 18 23 10 2 16 9 14 15 -2 7 3 21 12
31 9 11 11 16 4 13 -6 -4 -16 0 -22 10 -6 10 -11 13 -11 8 0 -6 6 -17 13 -25
6 -8 2 -6 -10 4 -13 10 -20 23 -17 28 4 6 -5 2 -20 -7 -14 -10 -26 -13 -26 -8
0 12 -46 11 -57 -1 -5 -5 -2 -6 6 -1 9 5 12 4 7 -3 -10 -17 -15 -15 -26 11 -5
13 -9 16 -9 7z"/>
<path d="M1939 1071 c-5 -14 -39 -25 -39 -13 0 4 -11 8 -25 8 -14 1 -23 -2
-20 -6 3 -5 1 -12 -5 -15 -6 -4 -10 -3 -9 2 3 20 -2 25 -16 13 -12 -10 -15
-10 -15 1 0 11 -2 11 -10 -1 -6 -10 -10 -11 -10 -2 0 6 -5 12 -11 12 -5 0 -8
-4 -5 -9 7 -10 -20 -9 -30 2 -4 3 -15 2 -25 -4 -13 -6 -19 -6 -19 1 0 5 -5 10
-11 10 -5 0 -7 -4 -4 -10 3 -5 2 -10 -4 -10 -5 0 -11 6 -14 13 -3 9 -8 9 -18
-2 -8 -8 -9 -11 -3 -8 6 4 10 -3 9 -16 -1 -12 3 -28 9 -36 9 -12 8 -13 -4 -6
-12 7 -13 6 -3 -6 6 -8 12 -17 12 -21 1 -5 3 -7 4 -5 2 1 11 -4 21 -12 12 -10
13 -17 6 -26 -8 -9 -8 -15 0 -20 6 -3 7 -11 4 -17 -4 -7 -2 -8 5 -4 9 6 9 12
-1 24 -12 15 -11 16 5 3 10 -8 16 -20 13 -28 -3 -7 1 -13 9 -13 9 0 15 -9 15
-21 0 -22 24 -52 34 -42 3 4 6 2 6 -3 0 -6 -5 -15 -12 -22 -9 -9 -8 -12 6 -12
9 0 14 -4 11 -10 -3 -5 -1 -10 5 -10 6 0 8 -5 4 -12 -5 -8 0 -7 11 2 11 9 16
10 11 2 -5 -8 -1 -11 16 -8 15 2 22 9 20 20 -2 9 2 16 9 16 8 0 8 4 -1 16 -11
13 -10 16 8 21 12 3 22 10 22 15 0 5 6 6 13 2 8 -5 8 -2 -2 9 -9 12 -10 17 -2
17 7 0 9 5 5 12 -5 8 -2 9 10 5 14 -6 15 -4 5 14 -6 12 -7 19 -2 16 5 -3 15
-2 23 4 8 5 10 9 4 9 -6 0 -11 7 -11 15 0 8 4 12 9 9 4 -3 8 -1 8 5 0 6 6 9
13 7 6 -1 9 -1 5 1 -13 7 -9 33 4 31 7 -2 12 7 13 19 0 12 7 28 15 35 12 11
12 11 2 -3 -9 -12 -9 -16 1 -16 23 0 16 32 -10 44 -21 10 -23 10 -13 -3 17
-19 5 -18 -14 2 -12 12 -16 12 -17 2 0 -7 -4 -4 -8 7 -6 14 -9 16 -12 6z"/>
<path d="M1624 1033 c2 -10 6 -17 10 -16 15 3 16 11 2 22 -12 10 -14 9 -12 -6z"/>
<path d="M2075 1011 c-3 -2 0 -10 7 -18 9 -11 7 -12 -8 -6 -17 6 -17 5 -5 -10
12 -15 12 -17 -4 -11 -15 6 -17 3 -13 -13 4 -14 1 -20 -11 -19 -10 1 -16 -8
-16 -26 -1 -31 -23 -60 -39 -51 -6 3 -8 3 -4 -2 4 -4 2 -15 -5 -23 -9 -13 -9
-14 0 -8 9 5 11 2 7 -9 -5 -12 -9 -13 -21 -4 -11 10 -13 9 -11 -2 2 -8 8 -17
13 -21 6 -5 3 -8 -7 -8 -9 0 -20 -5 -24 -12 -5 -7 -3 -8 6 -3 8 5 11 3 8 -6
-3 -8 -10 -13 -16 -12 -6 2 -9 -7 -7 -18 3 -17 1 -19 -10 -9 -11 9 -12 7 -8
-9 3 -14 1 -21 -8 -21 -11 0 -11 -2 1 -10 9 -5 19 -5 27 2 17 13 17 -4 1 -22
-11 -12 -10 -12 4 -1 10 7 26 10 38 6 11 -4 20 -3 19 2 -3 20 2 24 16 13 12
-10 19 -10 27 -2 9 9 15 9 26 0 10 -9 16 -8 23 3 7 11 9 11 9 0 0 -10 4 -11
13 -3 8 7 17 7 29 -2 10 -7 16 -15 13 -17 -2 -3 6 -5 19 -5 15 0 22 5 19 12
-3 8 3 11 14 10 10 -2 24 1 31 7 7 6 12 6 11 1 -4 -23 2 -26 17 -8 14 18 15
18 9 -6 l-6 -25 15 25 c13 22 13 26 -2 31 -14 5 -14 6 2 12 18 7 13 27 -7 27
-7 0 -6 -4 3 -10 9 -6 10 -10 3 -10 -7 0 -17 10 -24 21 -8 15 -8 19 0 15 6 -4
11 -2 11 3 0 6 -7 11 -16 11 -8 0 -12 5 -9 10 3 6 0 10 -7 10 -9 0 -9 3 2 10
13 9 13 10 0 11 -8 1 -22 0 -29 -1 -11 -1 -12 2 -5 12 6 7 10 18 9 23 -3 22
-18 45 -28 45 -5 0 -2 -10 9 -22 l19 -23 -22 18 c-13 11 -19 25 -16 35 5 11 3
13 -7 7 -9 -5 -11 -4 -6 3 9 15 -12 54 -25 46 -6 -4 -5 4 2 17 12 23 11 23 -6
9 -10 -8 -16 -10 -12 -3 4 6 2 15 -4 19 -8 4 -7 9 2 15 10 6 7 8 -9 6 -13 -1
-25 -3 -27 -6z m92 -343 c-3 -8 -6 -5 -6 6 -1 11 2 17 5 13 3 -3 4 -12 1 -19z"/>
<path d="M458 964 c-16 -25 -22 -42 -15 -39 6 4 3 0 -7 -9 -10 -8 -22 -13 -26
-11 -4 2 -7 -2 -7 -10 0 -12 3 -12 16 -3 9 7 6 1 -6 -13 -25 -28 -30 -44 -10
-34 6 4 0 -5 -16 -19 -15 -14 -26 -31 -25 -38 2 -7 -5 -12 -14 -12 -10 1 -14
-4 -11 -12 3 -8 -5 -22 -17 -32 -21 -17 -21 -19 -6 -34 20 -20 21 -29 2 -22
-8 3 -17 1 -21 -5 -4 -7 0 -8 11 -4 13 5 15 3 9 -8 -8 -12 -6 -12 8 -1 17 14
42 7 32 -9 -10 -15 1 -10 15 7 11 12 11 15 0 12 -7 -2 -15 4 -17 12 -3 9 -1
11 4 5 4 -5 19 -11 32 -13 17 -3 21 0 15 10 -6 10 -5 11 7 1 12 -10 18 -10 29
0 7 6 10 7 7 2 -3 -6 4 -17 16 -25 20 -12 21 -12 9 3 -10 12 -10 17 -1 23 8 4
9 3 5 -4 -5 -8 0 -12 13 -12 11 0 23 5 26 10 4 6 12 7 18 3 21 -13 47 -13 47
0 0 8 3 8 8 1 14 -20 42 -25 42 -6 0 14 2 15 9 2 6 -8 7 -18 4 -24 -3 -5 -1
-6 6 -2 6 4 9 12 6 17 -3 5 1 6 9 3 9 -3 13 -11 9 -17 -3 -5 -1 -7 5 -4 5 4 8
17 4 29 -4 16 -2 19 9 13 12 -8 12 -6 1 8 -8 9 -11 22 -7 29 4 7 0 5 -8 -4
-15 -19 -29 -14 -21 7 3 7 0 16 -5 20 -6 3 -9 10 -6 15 3 4 -2 13 -10 20 -13
11 -14 10 -9 -6 4 -10 4 -16 0 -13 -14 12 -17 59 -4 59 7 0 2 7 -10 16 -12 8
-26 13 -31 9 -6 -3 -8 3 -6 14 2 11 -5 27 -16 37 -15 13 -16 20 -8 31 10 11 8
12 -6 7 -15 -6 -17 -3 -13 14 4 15 2 19 -8 15 -10 -4 -12 0 -8 11 3 9 11 13
17 9 6 -3 7 -1 3 5 -5 9 -14 7 -32 -4 -22 -15 -24 -15 -18 0 11 28 0 17 -28
-30z m147 -124 c3 -5 1 -10 -4 -10 -6 0 -11 5 -11 10 0 6 2 10 4 10 3 0 8 -4
11 -10z m-278 -125 c0 -8 -4 -12 -9 -9 -5 3 -6 10 -3 15 9 13 12 11 12 -6z
m348 -15 c-3 -5 -12 -10 -18 -10 -7 0 -6 4 3 10 19 12 23 12 15 0z"/>
<path d="M605 940 c-4 -6 -1 -9 7 -8 7 2 12 -3 10 -10 -1 -8 2 -11 8 -7 8 5 7
11 -1 21 -14 17 -16 17 -24 4z"/>
<path d="M555 920 c3 -5 11 -10 16 -10 6 0 7 5 4 10 -3 6 -11 10 -16 10 -6 0
-7 -4 -4 -10z"/>
<path d="M1997 893 c-10 -9 -9 -23 1 -23 5 0 9 7 9 15 0 17 -1 18 -10 8z"/>
<path d="M370 834 c0 -8 5 -12 10 -9 6 4 8 11 5 16 -9 14 -15 11 -15 -7z"/>
<path d="M516 671 c-4 -5 -2 -12 3 -15 5 -4 12 -2 15 3 4 5 2 12 -3 15 -5 4
-12 2 -15 -3z"/>
<path d="M2031 666 c-10 -11 -9 -14 1 -12 14 2 23 15 15 22 -2 2 -10 -2 -16
-10z"/>
<path d="M2105 670 c-4 -6 -10 -8 -15 -5 -5 3 -11 2 -14 -3 -2 -4 4 -9 15 -9
10 -1 19 3 19 8 0 6 5 7 12 3 7 -4 8 -3 4 4 -9 15 -13 15 -21 2z"/>
<path d="M400 660 c-9 -6 -10 -10 -3 -10 6 0 15 5 18 10 8 12 4 12 -15 0z"/>
<path d="M2206 658 c3 -4 9 -8 15 -8 5 0 9 4 9 8 0 5 -7 9 -15 9 -8 0 -12 -4
-9 -9z"/>
<path d="M320 611 c0 -7 -5 -9 -10 -6 -6 4 -10 3 -9 -2 1 -4 0 -10 -1 -13 -6
-16 -7 -39 -2 -39 19 3 29 -2 31 -16 1 -8 2 -23 3 -34 2 -12 8 -17 17 -13 10
4 13 1 8 -12 -4 -9 -3 -15 2 -11 5 3 15 -8 22 -24 7 -16 16 -28 19 -26 3 2 6
-4 7 -13 3 -44 8 -60 15 -56 5 3 5 10 2 16 -4 7 -2 8 5 4 6 -4 9 -12 6 -17 -4
-5 -1 -9 6 -9 9 0 9 -3 0 -14 -9 -11 -9 -16 0 -22 8 -5 10 -3 4 7 -6 11 -5 12
5 2 11 -10 11 -15 0 -30 -11 -14 -11 -15 -1 -6 16 14 41 6 41 -12 0 -8 4 -17
10 -20 6 -4 7 1 3 11 -4 11 -3 15 5 10 6 -3 14 -1 18 5 4 8 3 9 -4 5 -7 -4
-12 -2 -12 3 0 6 7 11 15 11 8 0 15 5 15 11 0 5 -4 7 -10 4 -5 -3 -7 0 -4 9 3
9 12 12 22 8 15 -5 15 -3 4 10 -10 13 -10 18 -1 24 8 4 9 3 5 -4 -4 -7 -3 -12
2 -12 5 0 12 9 15 20 3 13 1 18 -5 13 -7 -4 -8 -1 -4 6 5 7 15 10 23 6 13 -4
14 -3 3 10 -13 15 -3 21 25 15 6 -1 4 4 -2 11 -18 18 -16 32 3 25 14 -5 15 -4
5 7 -9 11 -8 17 3 27 9 6 19 9 23 7 5 -3 8 7 7 21 -2 36 5 52 23 52 12 0 12 2
-1 16 -19 19 -21 31 -3 15 10 -8 14 -7 14 3 0 15 -14 16 -36 2 -10 -6 -12 -5
-7 2 4 7 2 12 -3 12 -6 0 -11 -7 -11 -15 0 -8 -5 -15 -11 -15 -5 0 -8 4 -4 9
3 5 1 12 -5 16 -5 3 -10 -2 -11 -12 0 -14 -2 -14 -9 5 -5 12 -12 22 -15 22 -4
0 -3 -4 0 -10 3 -5 1 -10 -5 -10 -6 0 -8 -6 -5 -12 4 -7 1 -6 -7 2 -16 18 -48
25 -48 10 0 -6 4 -9 9 -5 5 3 12 1 15 -4 4 -5 -2 -8 -11 -6 -10 2 -22 4 -26 4
-5 1 -6 5 -2 10 3 5 0 13 -6 17 -7 4 -9 3 -6 -3 5 -7 -6 -11 -28 -11 -22 0
-33 4 -28 11 3 6 1 7 -6 3 -6 -4 -9 -11 -6 -16 3 -4 -2 -10 -10 -13 -9 -4 -12
-1 -9 7 6 17 -32 15 -66 -4 -23 -12 -24 -12 -11 4 8 9 11 19 7 23 -3 3 -6 1
-6 -6z m60 -17 c0 -8 -19 -13 -24 -6 -3 5 1 9 9 9 8 0 15 -2 15 -3z m-49 -32
c-7 -2 -18 1 -23 6 -8 8 -4 9 13 5 13 -4 18 -8 10 -11z"/>
<path d="M1515 610 c-4 -6 -11 -7 -17 -4 -7 4 -8 2 -4 -4 4 -7 2 -12 -3 -12
-6 0 -11 6 -11 13 0 7 -3 8 -8 2 -10 -15 -94 -16 -85 -1 3 6 2 7 -2 3 -14 -12
-15 -38 -2 -31 9 5 9 3 0 -6 -9 -10 -8 -16 3 -28 8 -8 13 -21 10 -28 -3 -8 -2
-13 2 -13 21 3 31 -2 26 -15 -3 -7 2 -20 10 -29 8 -8 12 -17 9 -21 -4 -3 2 -6
13 -7 12 0 14 -3 6 -6 -10 -4 -8 -9 8 -20 16 -11 18 -18 10 -28 -8 -10 -8 -15
1 -21 8 -4 9 -3 5 4 -4 7 -2 12 5 12 6 0 9 -8 6 -20 -3 -12 -1 -18 5 -14 7 5
9 -3 6 -20 -4 -20 -2 -24 5 -17 16 16 27 13 20 -6 -4 -10 -2 -14 4 -10 6 4 14
0 17 -9 5 -13 9 -14 21 -4 8 7 15 17 15 22 0 16 25 35 40 30 9 -3 8 1 -4 10
-19 15 -18 15 1 20 15 4 20 12 18 31 -2 19 1 24 11 20 10 -4 12 0 8 11 -3 9
-1 16 5 16 6 0 10 3 10 8 -3 18 2 24 14 14 10 -9 13 -5 12 16 -1 36 15 72 29
66 6 -2 12 5 13 16 1 13 -2 18 -10 14 -9 -5 -9 -4 0 6 9 10 9 16 -2 26 -17 17
-29 18 -19 2 5 -7 2 -9 -8 -5 -9 3 -21 0 -28 -6 -10 -9 -9 -6 0 13 12 22 11
23 -2 13 -8 -7 -19 -9 -23 -5 -5 4 -5 1 -1 -5 4 -7 2 -13 -3 -13 -6 0 -11 6
-11 13 0 8 -3 7 -10 -3 -5 -8 -12 -11 -16 -7 -4 4 -13 2 -20 -4 -10 -8 -12 -6
-9 13 4 22 4 22 -10 4 -8 -10 -12 -23 -8 -29 3 -6 1 -7 -5 -3 -6 4 -9 14 -6
24 5 14 3 14 -10 -2 -15 -19 -22 -12 -17 17 2 10 -7 9 -14 -3z"/>
<path d="M1988 613 c6 -2 12 -9 12 -14 0 -4 -7 -5 -17 -2 -10 4 -14 2 -9 -5 4
-7 -1 -9 -15 -7 -13 3 -30 -1 -38 -8 -14 -11 -14 -10 -2 6 8 10 21 15 30 12
12 -4 13 -3 5 5 -12 12 -44 3 -44 -12 0 -5 -6 -6 -12 -2 -10 6 -10 4 -2 -7 6
-8 10 -22 9 -32 -2 -9 1 -15 6 -11 5 3 6 10 3 16 -5 7 -2 8 5 4 7 -5 10 -15 7
-23 -5 -11 -2 -13 11 -9 10 4 14 4 10 0 -4 -4 -2 -13 4 -21 9 -10 7 -13 -7
-13 -18 -1 -18 -1 1 -12 11 -6 24 -17 28 -25 5 -7 13 -10 19 -7 7 4 8 2 4 -5
-4 -6 -13 -8 -19 -4 -7 4 -7 0 1 -10 8 -9 10 -22 6 -28 -4 -8 -3 -9 4 -5 7 4
20 2 29 -4 16 -10 16 -11 -2 -6 -19 6 -19 5 -2 -8 18 -14 22 -31 10 -39 -5 -2
-2 -2 5 0 8 2 16 -6 19 -17 3 -11 9 -20 14 -20 5 0 5 -7 2 -17 -4 -11 -3 -14
5 -9 7 4 12 3 12 -3 0 -5 -3 -11 -7 -14 -5 -2 -2 -2 5 -1 6 2 12 -1 12 -7 0
-5 6 -4 14 3 7 7 12 18 9 24 -2 7 1 15 8 20 8 4 10 3 5 -4 -11 -18 0 -14 15 5
10 11 10 14 2 9 -19 -11 -16 2 7 27 11 12 18 28 15 35 -3 9 0 12 9 9 8 -3 18
2 22 11 12 29 13 42 1 35 -7 -4 -5 4 5 17 9 14 24 24 33 23 11 -1 14 2 7 9
-12 12 8 58 25 58 6 0 15 5 19 12 4 7 3 8 -4 4 -7 -4 -12 -2 -12 3 0 6 6 11
13 11 8 1 7 4 -3 9 -8 5 -18 8 -22 8 -3 -1 -19 9 -34 23 -25 23 -26 23 -15 3
10 -20 9 -21 -11 -18 -13 3 -25 10 -26 15 -2 6 -10 3 -18 -7 -12 -15 -13 -15
-8 -2 6 19 -11 35 -21 19 -5 -8 -11 -8 -20 0 -11 9 -12 6 -8 -12 4 -18 2 -20
-6 -8 -11 17 -59 22 -68 7 -4 -6 -1 -7 8 -2 12 8 12 6 0 -8 -14 -18 -22 -22
-20 -9 4 25 -3 42 -18 41 -11 0 -13 -3 -5 -6z m146 -18 c-4 -8 -11 -15 -16
-15 -6 0 -5 6 2 15 7 8 14 15 16 15 2 0 1 -7 -2 -15z m61 -195 c-3 -5 -12 -10
-18 -10 -7 0 -6 4 3 10 19 12 23 12 15 0z"/>
<path d="M2235 611 c-3 -5 -1 -12 5 -16 5 -3 10 1 10 9 0 18 -6 21 -15 7z"/>
<path d="M2265 601 c-6 -11 13 -26 22 -17 4 3 1 6 -6 6 -7 0 -9 5 -6 10 3 6 4
10 1 10 -3 0 -7 -4 -11 -9z"/>
<path d="M207 533 c3 -7 -1 -13 -8 -13 -11 0 -11 -2 1 -10 11 -7 9 -11 -13
-19 -15 -6 -27 -13 -27 -16 0 -4 5 -3 10 0 6 3 10 1 10 -4 0 -6 -8 -11 -17
-11 -11 0 -14 -3 -8 -8 6 -4 11 -13 10 -20 0 -15 -25 -33 -36 -26 -4 2 -11 -1
-15 -7 -4 -8 -3 -9 4 -5 7 4 12 3 12 -3 0 -5 -5 -13 -11 -16 -6 -4 -8 -13 -5
-21 3 -7 0 -16 -6 -20 -7 -5 -8 -2 -4 7 4 8 -2 3 -13 -11 -11 -14 -19 -30 -16
-37 2 -6 -3 -14 -12 -17 -8 -4 -13 -13 -9 -21 3 -8 -3 -19 -12 -24 -10 -6 -12
-11 -4 -11 6 0 12 -8 13 -17 0 -13 2 -14 6 -4 5 11 7 11 14 0 7 -12 9 -12 9 0
0 11 3 11 15 1 12 -10 15 -10 15 1 0 9 3 10 8 4 10 -14 32 -17 32 -4 0 8 5 8
15 -1 12 -10 15 -10 15 1 0 12 2 12 9 0 6 -9 10 -10 16 -2 5 9 10 9 21 0 11
-9 14 -8 14 2 0 12 2 12 9 0 6 -9 10 -10 16 -2 5 9 10 9 21 0 11 -9 14 -8 14
2 0 11 2 11 9 0 8 -12 12 -12 24 -2 11 8 17 9 22 1 5 -8 11 -7 23 2 13 11 14
11 8 -1 -6 -8 0 -7 18 4 25 17 38 34 14 19 -8 -5 -9 -2 -5 10 6 14 3 17 -9 12
-14 -5 -15 -4 -4 9 10 12 10 15 -2 15 -8 0 -20 12 -26 26 -7 14 -8 23 -2 19 5
-3 10 -1 10 4 0 6 -9 11 -20 11 -18 0 -19 3 -9 21 6 12 7 19 1 15 -5 -3 -16 2
-23 11 -12 14 -12 16 1 8 8 -4 6 1 -5 12 -11 11 -23 19 -27 16 -4 -2 -5 3 -2
12 4 9 -2 25 -12 37 -11 12 -13 18 -5 13 10 -5 12 -4 7 3 -4 7 -13 12 -21 12
-8 0 -17 5 -21 12 -5 7 -2 8 7 3 11 -6 11 -5 2 5 -6 7 -9 18 -7 24 3 7 -5 12
-20 12 -15 0 -22 -5 -19 -13z"/>
<path d="M665 540 c-3 -6 1 -7 9 -4 18 7 21 14 7 14 -6 0 -13 -4 -16 -10z"/>
<path d="M1827 535 c-5 -10 -3 -14 5 -9 7 4 8 3 4 -5 -4 -6 -16 -9 -25 -6 -11
3 -24 -2 -32 -12 -12 -16 -12 -17 1 -6 13 10 16 9 16 -7 0 -10 -4 -16 -8 -14
-4 3 -8 0 -8 -6 0 -6 -4 -9 -9 -5 -5 3 -13 0 -17 -6 -4 -8 -3 -9 4 -5 16 10
15 -2 -2 -19 -7 -8 -16 -12 -19 -9 -3 3 -3 -4 0 -17 4 -14 2 -20 -5 -15 -6 3
-13 2 -16 -3 -4 -5 -1 -13 5 -17 8 -5 9 -3 4 6 -6 9 -4 11 4 6 13 -8 6 -21
-10 -21 -5 0 -9 -4 -8 -9 0 -5 -5 -13 -13 -17 -10 -7 -10 -9 0 -9 7 0 10 -5 7
-10 -4 -6 -11 -8 -16 -5 -5 4 -9 1 -9 -5 0 -6 -4 -9 -9 -6 -5 4 -7 -3 -4 -15
4 -15 -4 -28 -28 -49 -29 -25 -31 -29 -11 -25 15 3 22 -1 22 -12 0 -11 4 -13
13 -6 10 8 32 10 40 3 10 -8 37 -6 37 3 0 7 4 6 10 -3 7 -12 12 -12 21 -3 9 9
16 9 25 2 8 -7 14 -7 19 1 5 8 10 8 20 0 10 -8 15 -8 20 0 5 8 10 8 20 0 9 -7
15 -8 19 -1 4 6 16 7 29 3 36 -12 72 -8 90 10 16 16 16 18 -7 43 -14 15 -22
33 -19 41 3 9 0 14 -8 12 -8 -2 -13 4 -13 14 1 10 -3 15 -9 11 -6 -4 -8 0 -4
10 4 10 2 16 -6 14 -6 -1 -13 8 -15 21 -2 13 -10 26 -18 29 -12 4 -12 8 3 19
13 11 14 13 2 9 -8 -3 -23 3 -34 14 -14 16 -15 24 -6 35 10 12 9 13 -8 9 -16
-4 -21 -1 -21 13 0 11 -4 25 -9 32 -7 11 -9 10 -14 -3z"/>
<path d="M2356 530 c2 -14 2 -19 -2 -12 -3 6 -10 12 -16 12 -5 0 -8 -6 -5 -12
2 -7 -3 -19 -12 -26 -13 -11 -13 -12 -1 -7 8 4 4 -3 -10 -15 -14 -12 -18 -19
-10 -15 8 4 3 -3 -12 -15 -23 -17 -26 -25 -18 -45 7 -20 6 -23 -6 -18 -10 4
-17 -2 -21 -16 -3 -12 -10 -18 -17 -14 -6 4 -5 -1 3 -11 8 -9 10 -16 5 -15
-19 3 -29 -1 -18 -9 7 -5 5 -14 -9 -27 -11 -11 -16 -14 -12 -6 5 9 4 12 -3 7
-9 -5 -9 -13 -1 -28 9 -16 8 -19 -2 -13 -9 6 -11 2 -7 -12 4 -15 1 -20 -11
-18 -9 1 -10 0 -3 -2 6 -3 12 -9 12 -15 0 -6 6 -6 15 2 12 10 15 10 15 -1 0
-12 2 -12 9 0 7 11 9 11 13 0 4 -12 8 -12 20 -1 12 9 18 10 23 2 5 -8 10 -8
20 0 10 8 15 8 20 0 5 -8 10 -8 20 0 10 8 15 8 20 0 5 -7 11 -8 19 -1 7 6 17
6 26 1 8 -5 21 -5 32 1 13 7 18 6 18 -2 0 -9 3 -9 14 0 10 9 16 9 21 1 5 -8
11 -7 23 2 9 7 13 8 9 2 -11 -18 22 -12 40 8 10 12 12 18 4 18 -7 0 -9 5 -5
13 5 7 0 6 -11 -3 -10 -8 -16 -10 -12 -4 4 7 0 17 -8 24 -12 10 -13 16 -3 28
10 13 10 14 1 8 -9 -5 -13 0 -13 16 0 19 -2 20 -11 8 -9 -12 -10 -11 -6 7 3
12 0 21 -5 20 -6 -1 -13 4 -16 12 -3 10 0 11 9 5 12 -7 12 -5 0 9 -15 19 -26
23 -15 5 4 -7 3 -8 -4 -4 -7 4 -12 16 -12 27 0 14 -4 18 -12 13 -8 -5 -7 0 2
11 9 11 10 16 3 11 -8 -4 -13 -2 -13 4 0 6 -5 8 -12 4 -8 -5 -7 0 2 11 12 15
12 17 1 10 -11 -6 -13 -4 -8 8 6 15 -3 22 -25 18 -13 -2 -9 17 5 22 9 3 9 8
-2 18 -9 9 -11 9 -7 2 11 -19 -5 -15 -20 5 -12 15 -13 15 -8 -8z m-66 -110 c0
-5 -5 -10 -11 -10 -5 0 -7 5 -4 10 3 6 8 10 11 10 2 0 4 -4 4 -10z"/>
<path d="M1270 530 c-8 -5 -15 -13 -15 -17 -1 -4 -6 -18 -13 -31 -7 -12 -10
-28 -6 -34 5 -7 2 -9 -8 -6 -8 4 -15 0 -15 -8 0 -7 5 -10 10 -7 6 3 7 1 3 -5
-4 -7 -14 -12 -21 -12 -9 0 -12 -6 -8 -17 4 -10 2 -14 -4 -10 -6 4 -14 0 -17
-9 -3 -8 -2 -12 4 -9 6 3 10 2 10 -4 0 -5 -9 -12 -20 -16 -11 -3 -19 -9 -19
-13 3 -22 -2 -32 -13 -26 -10 6 -10 4 0 -8 10 -13 10 -18 1 -24 -8 -5 -9 -3
-4 6 5 9 4 11 -4 6 -9 -6 -9 -11 1 -24 7 -9 8 -13 2 -9 -6 3 -20 -1 -30 -9
-19 -15 -19 -15 1 -10 18 5 18 5 4 -7 -14 -10 -14 -14 -3 -25 11 -10 14 -10
14 0 0 9 3 9 10 -2 9 -13 10 -13 10 0 0 12 2 12 9 1 6 -9 10 -10 16 -2 5 9 10
9 21 0 11 -9 14 -8 14 2 0 12 2 12 9 0 6 -9 10 -10 16 -2 5 9 10 9 21 0 11 -9
14 -8 14 2 0 11 2 11 9 0 8 -12 12 -12 24 -2 11 8 17 9 22 1 5 -8 10 -8 20 0
10 8 15 8 20 0 5 -8 10 -8 20 0 10 8 15 8 20 0 5 -8 11 -7 23 2 13 11 14 11 7
-2 -8 -12 -5 -12 16 1 17 12 30 14 42 8 13 -8 15 -6 11 6 -3 8 -10 15 -16 15
-5 0 -6 5 -3 10 3 6 0 10 -7 10 -9 0 -9 3 2 10 13 8 12 10 -4 10 -11 0 -16 5
-13 14 3 8 -4 21 -18 30 -15 10 -23 23 -20 36 2 13 -2 20 -11 20 -8 0 -14 7
-14 15 0 8 -4 14 -9 13 -5 -2 -9 2 -9 7 0 6 4 9 9 7 5 -1 9 2 9 8 0 6 -5 10
-11 10 -5 0 -8 4 -5 9 3 5 -2 8 -12 7 -12 -1 -16 5 -15 22 2 13 -1 21 -5 18
-4 -2 -14 5 -22 17 -12 19 -11 20 2 10 12 -10 15 -10 15 1 0 8 -7 13 -16 11
-9 -1 -21 1 -26 6 -6 4 -17 4 -25 -1z m-19 -63 c-10 -9 -11 -8 -5 6 3 10 9 15
12 12 3 -3 0 -11 -7 -18z"/>
<path d="M1861 514 c0 -11 3 -14 6 -6 3 7 2 16 -1 19 -3 4 -6 -2 -5 -13z"/>
<path d="M2216 452 c-3 -5 1 -9 9 -9 8 0 12 4 9 9 -3 4 -7 8 -9 8 -2 0 -6 -4
-9 -8z"/>
<path d="M360 440 c0 -5 5 -10 11 -10 5 0 7 5 4 10 -3 6 -8 10 -11 10 -2 0 -4
-4 -4 -10z"/>
<path d="M1456 392 c-3 -5 1 -9 9 -9 8 0 12 4 9 9 -3 4 -7 8 -9 8 -2 0 -6 -4
-9 -8z"/>
<path d="M1545 258 c8 -19 42 -20 42 -1 0 8 -4 10 -12 3 -7 -6 -16 -5 -24 3
-10 9 -11 8 -6 -5z"/>
</g>
</svg>
